<?xml version="1.0" encoding="UTF-8" standalone="no"?>
<svg xmlns="http://www.w3.org/2000/svg" viewBox="0 0 130 130">
    <path
       d="M 68.142611,2.7718163 A 12.999404,13.196541 0 0 0 55.210066,15.968427 12.999404,13.196541 0 0 0 66.585083,29.061167 L 53.227242,55.987173 27.337866,59.694956 A 12.999405,13.196542 0 0 0 27.981754,55.59288 12.999405,13.196542 0 0 0 14.982548,42.39627 12.999405,13.196542 0 0 0 1.9828247,55.59288 12.999405,13.196542 0 0 0 14.982548,68.789492 12.999405,13.196542 0 0 0 25.812894,62.892176 l 19.053102,18.648992 -4.401799,25.350392 a 12.999404,13.196542 0 0 0 -7.739062,-2.59416 12.999404,13.196542 0 0 0 -12.999724,13.19661 12.999404,13.196542 0 0 0 12.999724,13.19661 12.999404,13.196542 0 0 0 12.999206,-13.19661 12.999404,13.196542 0 0 0 -2.554367,-7.85585 L 66.585599,97.389296 92.845495,111.26442 a 12.999404,13.196541 0 0 0 -1.755966,6.62388 12.999404,13.196541 0 0 0 12.999211,13.19661 12.999404,13.196541 0 0 0 12.99972,-13.19661 12.999404,13.196541 0 0 0 -12.99972,-13.19661 12.999404,13.196541 0 0 0 -10.816398,5.87768 L 88.369798,81.630568 109.05122,61.553757 a 12.999404,13.196541 0 0 0 11.59723,7.235735 12.999404,13.196541 0 0 0 12.9992,-13.196612 12.999404,13.196541 0 0 0 -12.9992,-13.19661 12.999404,13.196541 0 0 0 -12.99921,13.19661 12.999404,13.196541 0 0 0 0.82631,4.630208 L 80.113972,56.042465 66.883771,29.09579 a 12.999404,13.196541 0 0 0 1.326018,0.06873 12.999404,13.196541 0 0 0 12.999206,-13.196093 12.999404,13.196541 0 0 0 -12.999206,-13.1966107 12.999404,13.196541 0 0 0 -0.06718,0 z"
       id="Icon" />
</svg>
